<mxfile host="Electron" agent="Mozilla/5.0 (Macintosh; Intel Mac OS X 10_15_7) AppleWebKit/537.36 (KHTML, like Gecko) draw.io/28.0.6 Chrome/138.0.7204.100 Electron/37.2.3 Safari/537.36" version="28.0.6">
  <diagram name="Page-1" id="LxLdfChvZs0XZIIdHfIZ">
    <mxGraphModel dx="588" dy="503" grid="1" gridSize="10" guides="1" tooltips="1" connect="1" arrows="1" fold="1" page="1" pageScale="1" pageWidth="850" pageHeight="1100" math="1" shadow="0">
      <root>
        <mxCell id="0" />
        <mxCell id="1" parent="0" />
        <mxCell id="hDPgeThS7KGppLuOswJO-1" value="" style="ellipse;whiteSpace=wrap;html=1;fillColor=none;strokeWidth=5;shadow=0;strokeColor=light-dark(#000000,#EDEDED);" parent="1" vertex="1">
          <mxGeometry x="180" y="150" width="120" height="40" as="geometry" />
        </mxCell>
        <mxCell id="hDPgeThS7KGppLuOswJO-2" value="" style="ellipse;whiteSpace=wrap;html=1;fillColor=none;strokeWidth=5;strokeColor=light-dark(#000000,#EDEDED);" parent="1" vertex="1">
          <mxGeometry x="420" y="270" width="120" height="40" as="geometry" />
        </mxCell>
        <mxCell id="hDPgeThS7KGppLuOswJO-3" value="" style="endArrow=none;html=1;rounded=0;strokeWidth=5;strokeColor=light-dark(#000000,#EDEDED);" parent="1" edge="1">
          <mxGeometry width="50" height="50" relative="1" as="geometry">
            <mxPoint x="240" y="200" as="sourcePoint" />
            <mxPoint x="480" y="320" as="targetPoint" />
          </mxGeometry>
        </mxCell>
        <mxCell id="hDPgeThS7KGppLuOswJO-4" value="" style="endArrow=none;html=1;rounded=0;strokeWidth=5;strokeColor=light-dark(#000000,#EDEDED);" parent="1" edge="1">
          <mxGeometry width="50" height="50" relative="1" as="geometry">
            <mxPoint x="200" y="320" as="sourcePoint" />
            <mxPoint x="520" y="200" as="targetPoint" />
          </mxGeometry>
        </mxCell>
        <mxCell id="hDPgeThS7KGppLuOswJO-5" value="" style="ellipse;whiteSpace=wrap;html=1;fillColor=none;strokeWidth=5;strokeColor=light-dark(#000000,#EDEDED);" parent="1" vertex="1">
          <mxGeometry x="140" y="270" width="120" height="40" as="geometry" />
        </mxCell>
        <mxCell id="hDPgeThS7KGppLuOswJO-6" value="" style="ellipse;whiteSpace=wrap;html=1;fillColor=none;strokeWidth=5;gradientColor=none;strokeColor=light-dark(#000000,#EDEDED);" parent="1" vertex="1">
          <mxGeometry x="460" y="150" width="120" height="40" as="geometry" />
        </mxCell>
        <mxCell id="hDPgeThS7KGppLuOswJO-9" value="" style="ellipse;whiteSpace=wrap;html=1;fillColor=default;strokeWidth=5;fillStyle=auto;gradientColor=default;strokeColor=light-dark(#000000,#EDEDED);" parent="1" vertex="1">
          <mxGeometry x="300" y="240" width="120" height="40" as="geometry" />
        </mxCell>
        <mxCell id="hDPgeThS7KGppLuOswJO-11" value="" style="endArrow=classic;html=1;rounded=0;exitX=0.5;exitY=0.5;exitDx=0;exitDy=0;exitPerimeter=0;strokeWidth=5;fillColor=#f8cecc;strokeColor=light-dark(#ff0000, #EDEDED);endFill=1;" parent="1" source="hDPgeThS7KGppLuOswJO-9" edge="1">
          <mxGeometry width="50" height="50" relative="1" as="geometry">
            <mxPoint x="380" y="340" as="sourcePoint" />
            <mxPoint x="560" y="260" as="targetPoint" />
          </mxGeometry>
        </mxCell>
        <mxCell id="hDPgeThS7KGppLuOswJO-12" value="" style="endArrow=classic;html=1;rounded=0;strokeWidth=5;fillColor=#f8cecc;strokeColor=light-dark(#0000ff, #EDEDED);endFill=1;" parent="1" edge="1">
          <mxGeometry width="50" height="50" relative="1" as="geometry">
            <mxPoint x="360" y="260" as="sourcePoint" />
            <mxPoint x="480" y="120" as="targetPoint" />
          </mxGeometry>
        </mxCell>
        <mxCell id="zXEa433hhh4N4dgIIp29-4" value="" style="endArrow=none;html=1;rounded=0;strokeWidth=5;strokeColor=light-dark(#000000,#EDEDED);" parent="1" edge="1">
          <mxGeometry width="50" height="50" relative="1" as="geometry">
            <mxPoint x="240" y="200" as="sourcePoint" />
            <mxPoint x="240" y="170" as="targetPoint" />
          </mxGeometry>
        </mxCell>
        <mxCell id="zXEa433hhh4N4dgIIp29-5" value="" style="endArrow=none;html=1;rounded=0;strokeWidth=5;strokeColor=light-dark(#000000,#EDEDED);" parent="1" edge="1">
          <mxGeometry width="50" height="50" relative="1" as="geometry">
            <mxPoint x="240" y="200" as="sourcePoint" />
            <mxPoint x="240" y="170" as="targetPoint" />
          </mxGeometry>
        </mxCell>
        <mxCell id="zXEa433hhh4N4dgIIp29-6" value="" style="endArrow=none;html=1;rounded=0;strokeWidth=5;strokeColor=light-dark(#000000,#EDEDED);" parent="1" edge="1">
          <mxGeometry width="50" height="50" relative="1" as="geometry">
            <mxPoint x="200" y="320" as="sourcePoint" />
            <mxPoint x="200" y="290" as="targetPoint" />
          </mxGeometry>
        </mxCell>
        <mxCell id="zXEa433hhh4N4dgIIp29-7" value="" style="endArrow=none;html=1;rounded=0;strokeWidth=5;strokeColor=light-dark(#000000,#EDEDED);" parent="1" edge="1">
          <mxGeometry width="50" height="50" relative="1" as="geometry">
            <mxPoint x="480" y="290" as="sourcePoint" />
            <mxPoint x="480" y="320" as="targetPoint" />
          </mxGeometry>
        </mxCell>
        <mxCell id="zXEa433hhh4N4dgIIp29-8" value="" style="endArrow=none;html=1;rounded=0;strokeWidth=5;strokeColor=light-dark(#000000,#EDEDED);" parent="1" edge="1">
          <mxGeometry width="50" height="50" relative="1" as="geometry">
            <mxPoint x="520" y="200" as="sourcePoint" />
            <mxPoint x="520" y="170" as="targetPoint" />
          </mxGeometry>
        </mxCell>
        <mxCell id="zXEa433hhh4N4dgIIp29-9" value="&lt;font style=&quot;color: light-dark(rgb(255, 0, 0), rgb(237, 237, 237)); font-size: 30px;&quot;&gt;&lt;b style=&quot;&quot;&gt;$$\hat{x}_b$$&lt;/b&gt;&lt;/font&gt;" style="text;html=1;align=center;verticalAlign=middle;resizable=0;points=[];autosize=1;strokeColor=none;fillColor=none;strokeWidth=1;" parent="1" vertex="1">
          <mxGeometry x="470" y="230" width="220" height="50" as="geometry" />
        </mxCell>
        <mxCell id="IIUSPk9tphEkDU_h_o-7-17" value="&lt;font style=&quot;color: light-dark(rgb(0, 255, 0), rgb(237, 237, 237)); font-size: 30px;&quot;&gt;&lt;b style=&quot;&quot;&gt;$$\hat{z}_b$$&lt;/b&gt;&lt;/font&gt;" style="text;html=1;align=center;verticalAlign=middle;resizable=0;points=[];autosize=1;strokeColor=none;fillColor=none;strokeWidth=1;" parent="1" vertex="1">
          <mxGeometry x="250" y="40" width="220" height="50" as="geometry" />
        </mxCell>
        <mxCell id="IIUSPk9tphEkDU_h_o-7-18" value="&lt;font style=&quot;font-size: 30px; color: light-dark(rgb(0, 0, 255), rgb(237, 237, 237));&quot;&gt;$$\hat{y}_b$$&lt;/font&gt;" style="text;html=1;align=center;verticalAlign=middle;resizable=0;points=[];autosize=1;strokeColor=none;fillColor=none;strokeWidth=1;fontStyle=1" parent="1" vertex="1">
          <mxGeometry x="400" y="90" width="210" height="50" as="geometry" />
        </mxCell>
        <mxCell id="hDPgeThS7KGppLuOswJO-13" value="" style="endArrow=classic;html=1;rounded=0;strokeWidth=5;fillColor=#f8cecc;strokeColor=light-dark(#00ff00, #EDEDED);endFill=1;" parent="1" edge="1">
          <mxGeometry width="50" height="50" relative="1" as="geometry">
            <mxPoint x="360" y="260" as="sourcePoint" />
            <mxPoint x="360" y="80" as="targetPoint" />
          </mxGeometry>
        </mxCell>
        <mxCell id="P-eyu_hoZkxsQN-T8bho-1" value="" style="endArrow=classic;html=1;rounded=0;strokeColor=#FF00FF;strokeWidth=5;" edge="1" parent="1">
          <mxGeometry width="50" height="50" relative="1" as="geometry">
            <mxPoint x="360" y="260" as="sourcePoint" />
            <mxPoint x="590" y="110" as="targetPoint" />
          </mxGeometry>
        </mxCell>
        <mxCell id="P-eyu_hoZkxsQN-T8bho-2" value="" style="endArrow=none;html=1;rounded=0;strokeColor=light-dark(#00ffff, #ff70ff);strokeWidth=5;startArrow=classic;startFill=1;endFill=0;" edge="1" parent="1">
          <mxGeometry width="50" height="50" relative="1" as="geometry">
            <mxPoint x="240" y="340" as="sourcePoint" />
            <mxPoint x="360" y="260" as="targetPoint" />
          </mxGeometry>
        </mxCell>
        <mxCell id="P-eyu_hoZkxsQN-T8bho-3" value="&lt;font style=&quot;font-size: 30px; color: light-dark(rgb(255, 0, 255), rgb(237, 237, 237));&quot;&gt;&lt;b style=&quot;&quot;&gt;$$\vec&lt;/b&gt;&lt;/font&gt;&lt;b style=&quot;color: light-dark(rgb(255, 0, 255), rgb(237, 237, 237)); font-size: 30px; background-color: transparent;&quot;&gt;{V}_b$$&lt;/b&gt;" style="text;html=1;align=center;verticalAlign=middle;resizable=0;points=[];autosize=1;strokeColor=none;fillColor=none;strokeWidth=1;" vertex="1" parent="1">
          <mxGeometry x="465" y="60" width="230" height="50" as="geometry" />
        </mxCell>
      </root>
    </mxGraphModel>
  </diagram>
</mxfile>
